<svg width="22" height="23" viewBox="0 0 22 23" fill="none" xmlns="http://www.w3.org/2000/svg">
<mask id="path-1-outside-1_3_710" maskUnits="userSpaceOnUse" x="3" y="1.5" width="14" height="17" fill="black">
<rect fill="white" x="3" y="1.5" width="14" height="17"/>
<path d="M16.5188 7.50599C16.5188 8.46599 16.2967 9.34002 15.8525 10.1281C15.4083 10.9018 14.7492 11.5179 13.8752 11.9764C13.0155 12.4349 11.9695 12.6642 10.7373 12.6642H8.84596V17.5H4.07462V2.28332H10.7373C12.6 2.28332 14.0256 2.75616 15.0143 3.70182C16.0173 4.64749 16.5188 5.91555 16.5188 7.50599ZM10.2 8.90301C11.1886 8.90301 11.683 8.43734 11.683 7.50599C11.683 6.57465 11.1886 6.10898 10.2 6.10898H8.84596V8.90301H10.2Z"/>
</mask>
<path d="M15.8525 10.1281L16.2189 10.3384L16.2205 10.3355L15.8525 10.1281ZM13.8752 11.9764L13.6789 11.6023L13.6764 11.6037L13.8752 11.9764ZM8.84596 12.6642V12.2417H8.42351V12.6642H8.84596ZM8.84596 17.5V17.9224H9.2684V17.5H8.84596ZM4.07462 17.5H3.65218V17.9224H4.07462V17.5ZM4.07462 2.28332V1.86087H3.65218V2.28332H4.07462ZM15.0143 3.70182L14.7223 4.00711L14.7245 4.00919L15.0143 3.70182ZM8.84596 6.10898V5.68653H8.42351V6.10898H8.84596ZM8.84596 8.90301H8.42351V9.32545H8.84596V8.90301ZM16.0963 7.50599C16.0963 8.39792 15.8908 9.1998 15.4845 9.92065L16.2205 10.3355C16.7026 9.48024 16.9412 8.53406 16.9412 7.50599H16.0963ZM15.4861 9.91775C15.0861 10.6145 14.4897 11.177 13.679 11.6023L14.0714 12.3505C15.0088 11.8588 15.7305 11.1891 16.2189 10.3384L15.4861 9.91775ZM13.6764 11.6037C12.892 12.022 11.9181 12.2417 10.7373 12.2417V13.0866C12.0209 13.0866 13.139 12.8478 14.074 12.3492L13.6764 11.6037ZM10.7373 12.2417H8.84596V13.0866H10.7373V12.2417ZM8.42351 12.6642V17.5H9.2684V12.6642H8.42351ZM8.84596 17.0776H4.07462V17.9224H8.84596V17.0776ZM4.49707 17.5V2.28332H3.65218V17.5H4.49707ZM4.07462 2.70577H10.7373V1.86087H4.07462V2.70577ZM10.7373 2.70577C12.5312 2.70577 13.8371 3.16039 14.7223 4.0071L15.3063 3.39655C14.2142 2.35192 12.6687 1.86087 10.7373 1.86087V2.70577ZM14.7245 4.00919C15.6296 4.86255 16.0963 6.01234 16.0963 7.50599H16.9412C16.9412 5.81876 16.405 4.43244 15.3041 3.39446L14.7245 4.00919ZM10.2 9.32545C10.7534 9.32545 11.247 9.19561 11.6019 8.86125C11.9616 8.52242 12.1054 8.04345 12.1054 7.50599H11.2605C11.2605 7.89988 11.1572 8.11941 11.0225 8.24626C10.8832 8.37757 10.6353 8.48056 10.2 8.48056V9.32545ZM12.1054 7.50599C12.1054 6.96854 11.9616 6.48956 11.6019 6.15074C11.247 5.81638 10.7534 5.68653 10.2 5.68653V6.53143C10.6353 6.53143 10.8832 6.63442 11.0225 6.76573C11.1572 6.89258 11.2605 7.1121 11.2605 7.50599H12.1054ZM10.2 5.68653H8.84596V6.53143H10.2V5.68653ZM8.42351 6.10898V8.90301H9.2684V6.10898H8.42351ZM8.84596 9.32545H10.2V8.48056H8.84596V9.32545Z" fill="white" mask="url(#path-1-outside-1_3_710)"/>
<mask id="path-3-outside-2_3_710" maskUnits="userSpaceOnUse" x="3.84497" y="2.34473" width="14" height="17" fill="black">
<rect fill="white" x="3.84497" y="2.34473" width="14" height="17"/>
<path d="M17.3637 8.35072C17.3637 9.31072 17.1417 10.1847 16.6975 10.9728C16.2533 11.7465 15.5942 12.3627 14.7202 12.8212C13.8605 13.2797 12.8145 13.5089 11.5823 13.5089H9.69093V18.3447H4.91959V3.12805H11.5823C13.4449 3.12805 14.8706 3.60088 15.8593 4.54655C16.8623 5.49222 17.3637 6.76028 17.3637 8.35072ZM11.045 9.74773C12.0336 9.74773 12.5279 9.28206 12.5279 8.35072C12.5279 7.41938 12.0336 6.95371 11.045 6.95371H9.69093V9.74773H11.045Z"/>
</mask>
<path d="M16.6975 10.9728L17.0639 11.1831L17.0655 11.1802L16.6975 10.9728ZM14.7202 12.8212L14.5239 12.4471L14.5214 12.4484L14.7202 12.8212ZM9.69093 13.5089V13.0865H9.26848V13.5089H9.69093ZM9.69093 18.3447V18.7672H10.1134V18.3447H9.69093ZM4.9196 18.3447H4.49715V18.7672H4.9196V18.3447ZM4.9196 3.12805V2.7056H4.49715V3.12805H4.9196ZM15.8593 4.54655L15.5673 4.85184L15.5695 4.85392L15.8593 4.54655ZM9.69093 6.95371V6.53126H9.26848V6.95371H9.69093ZM9.69093 9.74773H9.26848V10.1702H9.69093V9.74773ZM16.9413 8.35072C16.9413 9.24265 16.7358 10.0445 16.3295 10.7654L17.0655 11.1802C17.5476 10.325 17.7862 9.37879 17.7862 8.35072H16.9413ZM16.3311 10.7625C15.9311 11.4593 15.3346 12.0218 14.5239 12.4471L14.9164 13.1953C15.8537 12.7035 16.5755 12.0338 17.0638 11.1831L16.3311 10.7625ZM14.5214 12.4484C13.7369 12.8668 12.7631 13.0865 11.5823 13.0865V13.9314C12.8659 13.9314 13.984 13.6926 14.919 13.1939L14.5214 12.4484ZM11.5823 13.0865H9.69093V13.9314H11.5823V13.0865ZM9.26848 13.5089V18.3447H10.1134V13.5089H9.26848ZM9.69093 17.9223H4.9196V18.7672H9.69093V17.9223ZM5.34204 18.3447V3.12805H4.49715V18.3447H5.34204ZM4.9196 3.55049H11.5823V2.7056H4.9196V3.55049ZM11.5823 3.55049C13.3762 3.55049 14.6821 4.00511 15.5673 4.85183L16.1513 4.24127C15.0592 3.19665 13.5137 2.7056 11.5823 2.7056V3.55049ZM15.5695 4.85392C16.4745 5.70727 16.9413 6.85706 16.9413 8.35072H17.7862C17.7862 6.66349 17.25 5.27717 16.1491 4.23918L15.5695 4.85392ZM11.045 10.1702C11.5983 10.1702 12.0919 10.0403 12.4469 9.70597C12.8065 9.36715 12.9504 8.88817 12.9504 8.35072H12.1055C12.1055 8.74461 12.0022 8.96414 11.8675 9.09098C11.7281 9.22229 11.4802 9.32528 11.045 9.32528V10.1702ZM12.9504 8.35072C12.9504 7.81327 12.8065 7.33429 12.4469 6.99547C12.0919 6.6611 11.5983 6.53126 11.045 6.53126V7.37616C11.4802 7.37616 11.7281 7.47915 11.8675 7.61046C12.0022 7.7373 12.1055 7.95683 12.1055 8.35072H12.9504ZM11.045 6.53126H9.69093V7.37616H11.045V6.53126ZM9.26848 6.95371V9.74773H10.1134V6.95371H9.26848ZM9.69093 10.1702H11.045V9.32528H9.69093V10.1702Z" fill="#E3026F" mask="url(#path-3-outside-2_3_710)"/>
<path d="M17.7861 9.19447C17.7861 10.1545 17.564 11.0285 17.1198 11.8166C16.6757 12.5903 16.0166 13.2064 15.1425 13.6649C14.2828 14.1234 13.2369 14.3527 12.0046 14.3527H10.1133V19.1885H5.34196V3.9718H12.0046C13.8673 3.9718 15.293 4.44463 16.2816 5.3903C17.2846 6.33597 17.7861 7.60403 17.7861 9.19447ZM11.4673 10.5915C12.456 10.5915 12.9503 10.1258 12.9503 9.19447C12.9503 8.26313 12.456 7.79746 11.4673 7.79746H10.1133V10.5915H11.4673Z" fill="#FFD549"/>
<circle cx="15.5453" cy="17.5238" r="2.17619" fill="#DC2B2B"/>
</svg>
